<?xml version="1.0" encoding="UTF-8"?><svg xmlns="http://www.w3.org/2000/svg" xmlns:xlink="http://www.w3.org/1999/xlink" contentScriptType="text/ecmascript" width="742.5" zoomAndPan="magnify" contentStyleType="text/css" viewBox="0 0 742.5 179.999997" height="179.999997" preserveAspectRatio="xMidYMid meet" version="1.0"><defs><clipPath id="clip-0"><path d="M 180 22 L 730.773438 22 L 730.773438 171.957031 L 180 171.957031 Z M 180 22 " clip-rule="nonzero"/></clipPath><clipPath id="clip-1"><path d="M 374 160 L 381 160 L 381 171.957031 L 374 171.957031 Z M 374 160 " clip-rule="nonzero"/></clipPath><clipPath id="clip-2"><path d="M 380 160 L 395 160 L 395 171.957031 L 380 171.957031 Z M 380 160 " clip-rule="nonzero"/></clipPath><clipPath id="clip-3"><path d="M 395 160 L 408 160 L 408 171.957031 L 395 171.957031 Z M 395 160 " clip-rule="nonzero"/></clipPath><clipPath id="clip-4"><path d="M 406 160 L 420 160 L 420 171.957031 L 406 171.957031 Z M 406 160 " clip-rule="nonzero"/></clipPath><clipPath id="clip-5"><path d="M 419 160 L 434 160 L 434 171.957031 L 419 171.957031 Z M 419 160 " clip-rule="nonzero"/></clipPath><clipPath id="clip-6"><path d="M 434 160 L 449 160 L 449 171.957031 L 434 171.957031 Z M 434 160 " clip-rule="nonzero"/></clipPath><clipPath id="clip-7"><path d="M 447 160 L 462 160 L 462 171.957031 L 447 171.957031 Z M 447 160 " clip-rule="nonzero"/></clipPath><clipPath id="clip-8"><path d="M 462 160 L 475 160 L 475 171.957031 L 462 171.957031 Z M 462 160 " clip-rule="nonzero"/></clipPath><clipPath id="clip-9"><path d="M 473 160 L 480 160 L 480 171.957031 L 473 171.957031 Z M 473 160 " clip-rule="nonzero"/></clipPath><clipPath id="clip-10"><path d="M 479 160 L 494 160 L 494 171.957031 L 479 171.957031 Z M 479 160 " clip-rule="nonzero"/></clipPath><clipPath id="clip-11"><path d="M 494 160 L 509 160 L 509 171.957031 L 494 171.957031 Z M 494 160 " clip-rule="nonzero"/></clipPath><clipPath id="clip-12"><path d="M 507 160 L 522 160 L 522 171.957031 L 507 171.957031 Z M 507 160 " clip-rule="nonzero"/></clipPath><clipPath id="clip-13"><path d="M 523 160 L 534 160 L 534 171.957031 L 523 171.957031 Z M 523 160 " clip-rule="nonzero"/></clipPath><clipPath id="clip-14"><path d="M 671 8.457031 L 725 8.457031 L 725 73 L 671 73 Z M 671 8.457031 " clip-rule="nonzero"/></clipPath><clipPath id="clip-15"><path d="M 670 8.457031 L 689 8.457031 L 689 34 L 670 34 Z M 670 8.457031 " clip-rule="nonzero"/></clipPath></defs><path fill="rgb(0%, 38.819885%, 18.818665%)" d="M 699.644531 146.285156 L 699.644531 99.035156 L 23.316406 99.035156 L 12.492188 146.285156 Z M 699.644531 146.285156 " fill-opacity="1" fill-rule="nonzero"/><path fill="rgb(100%, 83.529663%, 12.548828%)" d="M 247.738281 126.976562 L 247.738281 119.480469 L 18.632812 119.480469 L 16.917969 126.976562 Z M 247.738281 126.976562 " fill-opacity="1" fill-rule="nonzero"/><g clip-path="url(#clip-0)"><path stroke-linecap="butt" transform="matrix(1.107594, 0, 0, 1.109889, 12.491514, 8.455593)" fill="none" stroke-linejoin="miter" d="M 599.523117 124.08463 C 604.30897 125.450194 611.489514 126.477887 618.23979 126.393419 C 629.779446 126.220964 639.093697 120.751668 639.093697 109.725088 C 639.093697 98.529573 619.86564 98.870964 619.86564 93.915515 C 619.86564 90.839475 623.625197 90.068706 627.042657 90.068706 C 631.659224 90.068706 635.418782 90.923943 639.351153 92.546431 L 642.599326 82.463076 C 637.044632 80.668133 631.659224 79.812896 627.815024 79.812896 C 617.470949 79.812896 605.335266 84.001096 605.335266 94.429361 C 605.335266 109.126774 623.70984 105.87828 623.70984 112.202813 C 623.70984 115.880686 617.559119 116.137609 615.079786 116.137609 C 610.805317 116.137609 606.534375 115.282372 602.602004 113.571897 Z M 543.461267 125.365727 L 558.845124 125.365727 L 563.200709 104.854107 C 564.311648 98.27265 568.159376 92.630899 574.655722 92.630899 C 578.926665 92.461963 580.637158 95.112143 580.637158 97.758804 C 580.637158 100.067593 580.037604 102.288394 579.610862 104.512716 L 575.336393 125.365727 L 591.235161 125.365727 L 595.336817 104.597183 C 596.27847 99.898657 596.532399 98.188182 596.532399 95.196611 C 596.532399 86.47882 591.661902 79.812896 582.689749 79.812896 C 575.509206 79.812896 570.381253 83.145858 567.217723 87.334058 L 567.048437 87.334058 L 572.518488 61.268674 L 556.961818 61.268674 Z M 505.259081 105.536889 C 505.259081 99.641734 509.618193 91.606725 516.879853 91.606725 C 521.753877 91.606725 524.23321 95.281079 524.23321 100.750375 C 524.23321 107.676742 519.874098 114.59959 512.608911 114.59959 C 507.480959 114.59959 505.259081 110.06648 505.259081 105.536889 Z M 481.157001 143.311634 L 496.71367 143.311634 L 502.353007 117.929033 C 505.60118 123.486316 509.960292 126.3899 516.710568 126.3899 C 532.778621 126.3899 540.128451 112.801128 540.128451 98.188182 C 540.128451 88.189295 534.485588 79.812896 523.549013 79.812896 C 517.994319 79.812896 512.266813 82.206153 507.565602 87.932372 L 507.396316 87.932372 L 508.591898 80.837069 L 494.488266 80.837069 C 494.31898 82.632012 494.149694 84.856333 493.55014 87.502994 Z M 459.622423 125.365727 L 475.175565 125.365727 L 488.50683 61.268674 L 472.953688 61.268674 Z M 456.800991 80.840589 L 441.417134 80.840589 L 437.058022 101.352209 C 435.95061 107.930146 432.102883 113.571897 425.606536 113.571897 C 421.335594 113.744352 419.625101 111.094172 419.625101 108.443992 C 419.625101 106.138723 420.224655 103.914401 420.651396 101.6936 L 424.922339 80.840589 L 409.027098 80.840589 L 404.925441 101.609132 C 403.983788 106.307658 403.726333 108.018133 403.726333 111.009704 C 403.726333 119.727495 408.600356 126.393419 417.572509 126.393419 C 425.694706 126.393419 430.307747 123.060457 434.751502 118.101488 L 434.924314 118.101488 L 433.725206 125.365727 L 447.998124 125.365727 C 448.424865 121.349982 449.109063 117.591161 449.877903 113.744352 Z M 369.371874 114.59959 C 364.501377 114.59959 362.022044 110.921717 362.022044 105.452421 C 362.022044 98.529573 366.381156 91.606725 373.646343 91.606725 C 378.774295 91.606725 380.996173 96.220784 380.996173 100.665907 C 380.996173 106.564581 376.637061 114.59959 369.371874 114.59959 Z M 377.832643 125.365727 L 391.932748 125.365727 C 392.105561 123.570784 392.363016 121.346463 392.874401 118.699802 L 404.840798 61.268674 L 389.714397 61.268674 L 384.328989 88.01684 L 384.159703 88.01684 C 381.849656 83.230326 376.467775 79.812896 368.687677 79.812896 C 353.476633 79.812896 346.123276 93.401668 346.123276 108.014614 C 346.123276 118.0135 353.134534 126.3899 362.706242 126.3899 C 371.251653 126.3899 374.926568 123.229393 378.858938 118.270424 L 379.028224 118.270424 Z M 312.368372 114.59959 C 307.497875 114.59959 305.018542 110.921717 305.018542 105.452421 C 305.018542 98.529573 309.377654 91.606725 316.642841 91.606725 C 321.767267 91.606725 323.992671 96.220784 323.992671 100.665907 C 323.992671 106.564581 319.633559 114.59959 312.368372 114.59959 Z M 320.829141 125.365727 L 334.929246 125.365727 C 335.102059 123.570784 335.359514 121.346463 335.870899 118.699802 L 347.837296 61.268674 L 332.707368 61.268674 L 327.325487 88.01684 L 327.152675 88.01684 C 324.846154 83.230326 319.460746 79.812896 311.684175 79.812896 C 296.473131 79.812896 289.123301 93.401668 289.123301 108.014614 C 289.123301 118.0135 296.131032 126.3899 305.70274 126.3899 C 314.248151 126.3899 317.923066 123.229393 321.855436 118.270424 L 322.024722 118.270424 Z M 270.918013 73.57635 L 286.474682 73.57635 L 288.865845 62.292847 L 273.312703 62.292847 Z M 260.150724 125.365727 L 275.703866 125.365727 L 284.933475 80.840589 L 269.380332 80.840589 Z M 220.326214 105.536889 C 220.326214 99.641734 224.6818 91.606725 231.946986 91.606725 C 236.817483 91.606725 239.296816 95.281079 239.296816 100.750375 C 239.296816 107.676742 234.937704 114.59959 227.676044 114.59959 C 222.548092 114.59959 220.326214 110.06648 220.326214 105.536889 Z M 213.914511 125.365727 L 216.136388 116.989327 L 216.309201 116.989327 C 219.042463 123.313861 224.170415 126.3899 231.777701 126.3899 C 247.842228 126.3899 255.195584 112.801128 255.195584 98.188182 C 255.195584 88.189295 249.552721 79.812896 238.612619 79.812896 C 232.803996 79.812896 228.102786 82.121685 224.255058 86.221897 L 224.085772 86.221897 L 229.640466 61.268674 L 214.514065 61.268674 L 202.72048 114.254679 C 201.694184 118.696283 200.667889 122.546611 199.641593 125.365727 Z M 213.914511 125.365727 " stroke="rgb(0%, 38.819885%, 18.818665%)" stroke-width="8" stroke-opacity="1" stroke-miterlimit="4.273"/></g><path fill="rgb(100%, 83.529663%, 12.548828%)" d="M 676.558594 145.730469 C 681.859375 147.25 689.808594 148.390625 697.289062 148.296875 C 710.066406 148.105469 720.386719 142.03125 720.386719 129.796875 C 720.386719 117.371094 699.085938 117.75 699.085938 112.246094 C 699.085938 108.832031 703.253906 107.980469 707.039062 107.980469 C 712.148438 107.980469 716.316406 108.929688 720.667969 110.730469 L 724.265625 99.539062 C 718.113281 97.542969 712.152344 96.597656 707.890625 96.597656 C 696.4375 96.597656 682.996094 101.246094 682.996094 112.816406 C 682.996094 129.132812 703.347656 125.527344 703.347656 132.546875 C 703.347656 136.625 696.53125 136.910156 693.785156 136.910156 C 689.054688 136.910156 684.320312 135.960938 679.964844 134.066406 Z M 614.460938 147.15625 L 631.5 147.15625 L 636.328125 124.390625 C 637.554688 117.085938 641.816406 110.828125 649.011719 110.828125 C 653.742188 110.636719 655.636719 113.578125 655.636719 116.519531 C 655.636719 119.078125 654.972656 121.542969 654.5 124.011719 L 649.769531 147.15625 L 667.375 147.15625 L 671.917969 124.105469 C 672.957031 118.890625 673.242188 116.992188 673.242188 113.671875 C 673.242188 103.996094 667.847656 96.597656 657.90625 96.597656 C 649.957031 96.597656 644.277344 100.296875 640.773438 104.945312 L 640.585938 104.945312 L 646.644531 76.015625 L 629.414062 76.015625 Z M 572.148438 125.148438 C 572.148438 118.605469 576.976562 109.6875 585.023438 109.6875 C 590.417969 109.6875 593.164062 113.765625 593.164062 119.839844 C 593.164062 127.523438 588.335938 135.207031 580.289062 135.207031 C 574.609375 135.203125 572.148438 130.175781 572.148438 125.148438 M 545.453125 167.074219 L 562.683594 167.074219 L 568.929688 138.902344 C 572.527344 145.070312 577.355469 148.296875 584.832031 148.296875 C 602.628906 148.296875 610.769531 133.210938 610.769531 116.992188 C 610.769531 105.894531 604.519531 96.597656 592.40625 96.597656 C 586.253906 96.597656 579.910156 99.253906 574.703125 105.609375 L 574.515625 105.609375 L 575.839844 97.734375 L 560.222656 97.734375 C 560.03125 99.726562 559.84375 102.195312 559.179688 105.132812 Z M 521.601562 147.15625 L 538.828125 147.15625 L 553.597656 76.015625 L 536.367188 76.015625 Z M 518.476562 97.734375 L 501.441406 97.734375 L 496.613281 120.503906 C 495.382812 127.804688 491.121094 134.066406 483.925781 134.066406 C 479.195312 134.257812 477.304688 131.316406 477.304688 128.375 C 477.304688 125.8125 477.964844 123.347656 478.4375 120.878906 L 483.171875 97.734375 L 465.5625 97.734375 L 461.019531 120.785156 C 459.976562 126.003906 459.695312 127.902344 459.695312 131.21875 C 459.695312 140.894531 465.089844 148.296875 475.03125 148.296875 C 484.023438 148.296875 489.132812 144.59375 494.058594 139.09375 L 494.246094 139.09375 L 492.921875 147.15625 L 508.730469 147.15625 C 509.203125 142.699219 509.960938 138.527344 510.8125 134.257812 Z M 421.640625 135.203125 C 416.246094 135.203125 413.5 131.125 413.5 125.054688 C 413.5 117.371094 418.328125 109.6875 426.375 109.6875 C 432.054688 109.6875 434.515625 114.808594 434.515625 119.742188 C 434.515625 126.289062 429.6875 135.203125 421.640625 135.203125 M 431.011719 147.15625 L 446.632812 147.15625 C 446.820312 145.164062 447.105469 142.699219 447.675781 139.757812 L 460.925781 76.015625 L 444.171875 76.015625 L 438.207031 105.703125 L 438.019531 105.703125 C 435.460938 100.390625 429.5 96.597656 420.882812 96.597656 C 404.035156 96.597656 395.894531 111.679688 395.894531 127.902344 C 395.894531 139 403.65625 148.296875 414.257812 148.296875 C 423.722656 148.296875 427.792969 144.785156 432.148438 139.28125 L 432.335938 139.28125 Z M 358.503906 135.203125 C 353.109375 135.203125 350.363281 131.125 350.363281 125.054688 C 350.363281 117.371094 355.191406 109.6875 363.238281 109.6875 C 368.917969 109.6875 371.378906 114.808594 371.378906 119.742188 C 371.378906 126.289062 366.550781 135.203125 358.503906 135.203125 M 367.875 147.15625 L 383.496094 147.15625 C 383.683594 145.164062 383.96875 142.699219 384.535156 139.757812 L 397.789062 76.015625 L 381.035156 76.015625 L 375.070312 105.703125 L 374.878906 105.703125 C 372.324219 100.390625 366.363281 96.597656 357.746094 96.597656 C 340.898438 96.597656 332.757812 111.679688 332.757812 127.902344 C 332.757812 139 340.519531 148.296875 351.121094 148.296875 C 360.585938 148.296875 364.65625 144.785156 369.011719 139.28125 L 369.199219 139.28125 Z M 312.597656 89.675781 L 329.824219 89.675781 L 332.472656 77.152344 L 315.246094 77.152344 Z M 300.667969 147.15625 L 317.898438 147.15625 L 328.121094 97.738281 L 310.894531 97.738281 Z M 256.558594 125.148438 C 256.558594 118.605469 261.386719 109.6875 269.433594 109.6875 C 274.828125 109.6875 277.574219 113.765625 277.574219 119.839844 C 277.574219 127.523438 272.746094 135.207031 264.699219 135.207031 C 259.019531 135.203125 256.558594 130.175781 256.558594 125.148438 M 249.457031 147.15625 L 251.921875 137.859375 L 252.109375 137.859375 C 255.140625 144.878906 260.820312 148.296875 269.242188 148.296875 C 287.039062 148.296875 295.179688 133.210938 295.179688 116.992188 C 295.179688 105.894531 288.933594 96.597656 276.816406 96.597656 C 270.378906 96.597656 265.171875 99.160156 260.914062 103.710938 L 260.722656 103.710938 L 266.875 76.015625 L 250.121094 76.015625 L 237.058594 134.824219 C 235.921875 139.757812 234.785156 144.027344 233.652344 147.15625 Z M 249.457031 147.15625 " fill-opacity="1" fill-rule="nonzero"/><path fill="rgb(100%, 100%, 100%)" d="M 691.765625 61.125 C 691.738281 61.125 691.71875 61.125 691.695312 61.125 C 691.621094 61.371094 691.554688 61.621094 691.480469 61.867188 C 691.316406 62.382812 691.0625 62.855469 690.6875 63.246094 C 690.324219 63.628906 689.863281 63.878906 689.40625 64.125 C 688.851562 64.425781 688.261719 64.648438 687.644531 64.796875 C 686.984375 64.957031 686.324219 65.058594 685.644531 65.039062 C 685.363281 65.03125 685.082031 65.019531 684.796875 64.988281 C 684.363281 64.9375 683.929688 64.871094 683.503906 64.777344 C 682.851562 64.632812 682.214844 64.425781 681.605469 64.15625 C 681.171875 63.960938 680.777344 63.703125 680.394531 63.421875 C 680 63.136719 679.761719 62.757812 679.601562 62.3125 C 679.464844 61.9375 679.410156 61.550781 679.414062 61.152344 C 679.414062 61.082031 679.40625 61.007812 679.398438 60.9375 C 679.199219 61.269531 679.148438 61.636719 679.136719 62 C 679.125 62.25 679.167969 62.5 679.214844 62.746094 C 679.289062 63.160156 679.472656 63.519531 679.75 63.832031 C 679.929688 64.035156 680.132812 64.207031 680.335938 64.378906 C 680.628906 64.625 680.9375 64.835938 681.273438 65.011719 C 681.90625 65.347656 682.570312 65.621094 683.261719 65.816406 C 683.972656 66.019531 684.707031 66.105469 685.441406 66.160156 C 685.691406 66.179688 685.945312 66.132812 686.195312 66.136719 C 686.644531 66.144531 687.082031 66.058594 687.515625 65.957031 C 688.210938 65.800781 688.871094 65.550781 689.492188 65.199219 C 689.847656 64.996094 690.179688 64.761719 690.5 64.503906 C 691.046875 64.058594 691.457031 63.535156 691.648438 62.847656 C 691.726562 62.558594 691.785156 62.265625 691.777344 61.964844 C 691.769531 61.683594 691.769531 61.402344 691.765625 61.125 " fill-opacity="1" fill-rule="nonzero"/><g clip-path="url(#clip-1)"><path fill="rgb(0%, 0%, 0%)" d="M 377.292969 160.652344 L 380.164062 160.652344 L 377.542969 171.597656 L 374.671875 171.597656 Z M 377.292969 160.652344 " fill-opacity="1" fill-rule="nonzero"/></g><g clip-path="url(#clip-2)"><path fill="rgb(0%, 0%, 0%)" d="M 388.664062 171.597656 L 384.640625 164.402344 L 382.917969 171.597656 L 380.261719 171.597656 L 382.882812 160.652344 L 385.664062 160.652344 L 389.742188 167.984375 L 391.5 160.652344 L 394.152344 160.652344 L 391.53125 171.597656 Z M 388.664062 171.597656 " fill-opacity="1" fill-rule="nonzero"/></g><g clip-path="url(#clip-3)"><path fill="rgb(0%, 0%, 0%)" d="M 397.761719 171.597656 L 399.941406 162.503906 L 395.742188 162.503906 L 396.1875 160.652344 L 407.433594 160.652344 L 406.992188 162.503906 L 402.8125 162.503906 L 400.632812 171.597656 Z M 397.761719 171.597656 " fill-opacity="1" fill-rule="nonzero"/></g><g clip-path="url(#clip-4)"><path fill="rgb(0%, 0%, 0%)" d="M 406.679688 171.597656 L 409.304688 160.652344 L 419.800781 160.652344 L 419.355469 162.503906 L 411.730469 162.503906 L 411.148438 164.929688 L 418.238281 164.929688 L 417.796875 166.78125 L 410.707031 166.78125 L 409.996094 169.746094 L 417.898438 169.746094 L 417.457031 171.597656 Z M 406.679688 171.597656 " fill-opacity="1" fill-rule="nonzero"/></g><g clip-path="url(#clip-5)"><path fill="rgb(0%, 0%, 0%)" d="M 428.976562 165.148438 C 429.339844 165.058594 429.644531 164.90625 429.886719 164.6875 C 430.136719 164.464844 430.296875 164.191406 430.375 163.863281 C 430.464844 163.496094 430.40625 163.195312 430.207031 162.96875 C 430.007812 162.742188 429.683594 162.601562 429.234375 162.539062 C 429.007812 162.515625 428.3125 162.503906 427.152344 162.503906 L 424.917969 162.503906 L 424.25 165.285156 M 419.871094 171.597656 L 422.492188 160.652344 L 428.519531 160.652344 C 430.039062 160.652344 431.117188 160.75 431.753906 160.949219 C 432.398438 161.144531 432.863281 161.492188 433.15625 161.996094 C 433.449219 162.5 433.519531 163.074219 433.363281 163.722656 C 433.164062 164.542969 432.691406 165.222656 431.941406 165.753906 C 431.191406 166.289062 430.175781 166.628906 428.902344 166.765625 C 429.453125 167.042969 429.886719 167.351562 430.210938 167.683594 C 430.53125 168.019531 430.929688 168.609375 431.40625 169.460938 L 432.625 171.597656 L 429.203125 171.597656 L 427.722656 169.210938 C 427.1875 168.359375 426.8125 167.824219 426.59375 167.605469 C 426.375 167.382812 426.121094 167.234375 425.835938 167.152344 C 425.550781 167.070312 425.082031 167.027344 424.421875 167.027344 L 423.839844 167.027344 L 422.742188 171.597656 Z M 419.871094 171.597656 " fill-opacity="1" fill-rule="nonzero"/></g><g clip-path="url(#clip-6)"><path fill="rgb(0%, 0%, 0%)" d="M 442.582031 171.597656 L 438.5625 164.402344 L 436.835938 171.597656 L 434.183594 171.597656 L 436.804688 160.652344 L 439.585938 160.652344 L 443.664062 167.984375 L 445.417969 160.652344 L 448.070312 160.652344 L 445.449219 171.597656 Z M 442.582031 171.597656 " fill-opacity="1" fill-rule="nonzero"/></g><g clip-path="url(#clip-7)"><path fill="rgb(0%, 0%, 0%)" d="M 453.175781 167.257812 L 457.058594 167.257812 L 456.0625 163.207031 Z M 458.175781 171.597656 L 457.546875 169.105469 L 451.859375 169.105469 L 450.085938 171.597656 L 447.050781 171.597656 L 455.179688 160.652344 L 458.210938 160.652344 L 461.269531 171.597656 Z M 458.175781 171.597656 " fill-opacity="1" fill-rule="nonzero"/></g><g clip-path="url(#clip-8)"><path fill="rgb(0%, 0%, 0%)" d="M 464.6875 171.597656 L 466.867188 162.503906 L 462.667969 162.503906 L 463.113281 160.652344 L 474.363281 160.652344 L 473.917969 162.503906 L 469.738281 162.503906 L 467.558594 171.597656 Z M 464.6875 171.597656 " fill-opacity="1" fill-rule="nonzero"/></g><g clip-path="url(#clip-9)"><path fill="rgb(0%, 0%, 0%)" d="M 476.128906 160.652344 L 479.003906 160.652344 L 476.378906 171.597656 L 473.507812 171.597656 Z M 476.128906 160.652344 " fill-opacity="1" fill-rule="nonzero"/></g><g clip-path="url(#clip-10)"><path fill="rgb(0%, 0%, 0%)" d="M 482.765625 166.117188 C 482.46875 167.359375 482.617188 168.296875 483.207031 168.941406 C 483.796875 169.582031 484.660156 169.898438 485.808594 169.898438 C 486.953125 169.898438 487.964844 169.582031 488.851562 168.949219 C 489.738281 168.3125 490.332031 167.359375 490.636719 166.085938 C 490.9375 164.832031 490.804688 163.894531 490.238281 163.277344 C 489.671875 162.660156 488.796875 162.347656 487.617188 162.347656 C 486.433594 162.347656 485.40625 162.664062 484.53125 163.289062 C 483.65625 163.914062 483.070312 164.855469 482.765625 166.117188 M 479.796875 166.191406 C 480.066406 165.074219 480.507812 164.136719 481.121094 163.378906 C 481.578125 162.820312 482.136719 162.320312 482.804688 161.875 C 483.46875 161.433594 484.15625 161.101562 484.875 160.890625 C 485.824219 160.597656 486.882812 160.453125 488.035156 160.453125 C 490.125 160.453125 491.679688 160.953125 492.691406 161.957031 C 493.707031 162.960938 494.003906 164.355469 493.574219 166.136719 C 493.148438 167.910156 492.195312 169.296875 490.710938 170.296875 C 489.226562 171.296875 487.441406 171.796875 485.355469 171.796875 C 483.246094 171.796875 481.6875 171.296875 480.679688 170.304688 C 479.675781 169.308594 479.378906 167.9375 479.796875 166.191406 " fill-opacity="1" fill-rule="nonzero"/></g><g clip-path="url(#clip-11)"><path fill="rgb(0%, 0%, 0%)" d="M 502.890625 171.597656 L 498.871094 164.402344 L 497.144531 171.597656 L 494.492188 171.597656 L 497.113281 160.652344 L 499.894531 160.652344 L 503.96875 167.984375 L 505.726562 160.652344 L 508.382812 160.652344 L 505.757812 171.597656 Z M 502.890625 171.597656 " fill-opacity="1" fill-rule="nonzero"/></g><g clip-path="url(#clip-12)"><path fill="rgb(0%, 0%, 0%)" d="M 513.484375 167.257812 L 517.371094 167.257812 L 516.367188 163.207031 Z M 518.488281 171.597656 L 517.859375 169.105469 L 512.167969 169.105469 L 510.394531 171.597656 L 507.359375 171.597656 L 515.488281 160.652344 L 518.519531 160.652344 L 521.578125 171.597656 Z M 518.488281 171.597656 " fill-opacity="1" fill-rule="nonzero"/></g><g clip-path="url(#clip-13)"><path fill="rgb(0%, 0%, 0%)" d="M 523.195312 171.597656 L 525.792969 160.746094 L 528.667969 160.746094 L 526.511719 169.746094 L 533.621094 169.746094 L 533.175781 171.597656 Z M 523.195312 171.597656 " fill-opacity="1" fill-rule="nonzero"/></g><path fill="rgb(100%, 100%, 100%)" d="M 672.28125 17.269531 C 672.28125 17.269531 673.667969 26.332031 674.703125 27.992188 C 675.371094 29.066406 676.597656 31.09375 677.617188 31.738281 C 678.175781 32.089844 678.632812 32.746094 679.171875 33.042969 C 681.054688 34.082031 679.875 33.230469 683.851562 35.054688 C 684.609375 35.402344 691.011719 40.371094 691.011719 40.371094 L 701.464844 40.085938 C 701.464844 40.085938 702.394531 37.386719 702.1875 35.730469 C 701.980469 34.070312 701.152344 22.765625 699.808594 21.210938 C 698.464844 19.65625 692.875 13.640625 691.738281 13.121094 C 690.601562 12.605469 683.769531 9.597656 682.425781 9.597656 C 681.078125 9.597656 676.214844 9.90625 675.386719 10.632812 C 674.558594 11.359375 671.351562 13.746094 672.28125 17.269531 " fill-opacity="1" fill-rule="nonzero"/><path fill="rgb(100%, 100%, 100%)" d="M 685.976562 70.078125 C 685.976562 70.078125 694.203125 66.125 696.054688 63.445312 C 697.902344 60.761719 699.507812 58.613281 698.683594 54.078125 C 697.855469 49.542969 694.15625 45.835938 691.332031 46.46875 C 688.507812 47.101562 687.828125 48.371094 685.832031 48.371094 C 683.835938 48.371094 681.304688 46.421875 679.164062 46.46875 C 677.023438 46.519531 672.691406 50.03125 672.496094 54.125 C 672.300781 58.222656 673.46875 63.054688 677.65625 65.832031 C 681.839844 68.613281 685.976562 70.078125 685.976562 70.078125 " fill-opacity="1" fill-rule="nonzero"/><path fill="rgb(100%, 100%, 100%)" d="M 703.46875 38.617188 C 703.492188 38.484375 703.507812 38.378906 703.527344 38.269531 C 704.085938 34.984375 704.121094 31.691406 703.550781 28.402344 C 703.042969 25.449219 702.035156 22.683594 700.414062 20.15625 C 699.847656 19.273438 699.21875 18.441406 698.519531 17.660156 C 698.453125 17.585938 698.386719 17.507812 698.316406 17.421875 C 698.371094 17.355469 698.410156 17.300781 698.460938 17.25 C 700.570312 15.011719 702.976562 13.167969 705.746094 11.8125 C 707.441406 10.980469 709.21875 10.371094 711.085938 10.058594 C 712.933594 9.746094 714.785156 9.730469 716.617188 10.179688 C 717.710938 10.449219 718.734375 10.878906 719.65625 11.53125 C 721.355469 12.726562 722.332031 14.359375 722.59375 16.429688 C 722.785156 17.945312 722.703125 19.453125 722.417969 20.949219 C 721.914062 23.582031 720.871094 25.996094 719.386719 28.222656 C 717.445312 31.140625 714.917969 33.441406 711.921875 35.242188 C 709.320312 36.808594 706.515625 37.878906 703.578125 38.617188 C 703.554688 38.621094 703.53125 38.617188 703.46875 38.617188 " fill-opacity="1" fill-rule="nonzero"/><path fill="rgb(100%, 100%, 100%)" d="M 691.699219 61.238281 C 691.675781 61.238281 691.65625 61.242188 691.628906 61.242188 C 691.558594 61.488281 691.492188 61.738281 691.414062 61.984375 C 691.253906 62.5 691 62.972656 690.625 63.363281 C 690.261719 63.746094 689.796875 63.996094 689.34375 64.246094 C 688.789062 64.546875 688.199219 64.765625 687.582031 64.914062 C 686.921875 65.070312 686.261719 65.175781 685.582031 65.15625 C 685.300781 65.148438 685.019531 65.140625 684.734375 65.105469 C 684.300781 65.054688 683.867188 64.988281 683.441406 64.890625 C 682.789062 64.75 682.152344 64.546875 681.542969 64.273438 C 681.109375 64.078125 680.714844 63.820312 680.332031 63.539062 C 679.933594 63.25 679.699219 62.875 679.535156 62.429688 C 679.398438 62.054688 679.347656 61.667969 679.347656 61.269531 C 679.347656 61.199219 679.339844 61.125 679.335938 61.054688 C 679.136719 61.386719 679.085938 61.75 679.074219 62.117188 C 679.0625 62.367188 679.105469 62.617188 679.148438 62.867188 C 679.222656 63.273438 679.40625 63.636719 679.6875 63.949219 C 679.867188 64.152344 680.066406 64.324219 680.273438 64.496094 C 680.566406 64.742188 680.875 64.953125 681.210938 65.132812 C 681.84375 65.464844 682.507812 65.738281 683.199219 65.9375 C 683.910156 66.140625 684.644531 66.222656 685.378906 66.277344 C 685.628906 66.296875 685.878906 66.253906 686.132812 66.253906 C 686.582031 66.261719 687.019531 66.175781 687.453125 66.078125 C 688.148438 65.917969 688.808594 65.671875 689.429688 65.316406 C 689.785156 65.113281 690.113281 64.878906 690.433594 64.621094 C 690.984375 64.175781 691.394531 63.652344 691.585938 62.964844 C 691.664062 62.675781 691.722656 62.382812 691.710938 62.082031 C 691.707031 61.800781 691.707031 61.523438 691.699219 61.238281 " fill-opacity="1" fill-rule="nonzero"/><path fill="rgb(100%, 83.529663%, 12.548828%)" d="M 696.152344 70.476562 C 696.269531 70.402344 696.339844 70.335938 696.417969 70.304688 C 697.289062 69.964844 698.160156 69.628906 699.011719 69.234375 C 699.730469 68.90625 700.421875 68.527344 701.101562 68.125 C 701.917969 67.640625 702.714844 67.117188 703.445312 66.5 C 703.847656 66.160156 704.261719 65.832031 704.648438 65.476562 C 705.183594 64.980469 705.714844 64.484375 706.210938 63.953125 C 706.699219 63.429688 707.140625 62.867188 707.550781 62.273438 C 707.863281 61.820312 708.140625 61.34375 708.414062 60.863281 C 708.839844 60.117188 709.175781 59.328125 709.421875 58.503906 C 709.570312 58.003906 709.679688 57.492188 709.792969 56.984375 C 709.867188 56.636719 709.933594 56.28125 709.972656 55.925781 C 710.007812 55.597656 710.007812 55.265625 710.023438 54.9375 C 710.011719 54.730469 709.914062 53.144531 709.863281 52.804688 C 709.804688 52.425781 709.746094 52.042969 709.648438 51.671875 C 709.53125 51.234375 709.390625 50.796875 709.238281 50.371094 C 709.105469 50 708.203125 48.058594 707.859375 47.480469 C 707.539062 46.949219 707.164062 46.445312 706.792969 45.945312 C 706.578125 45.652344 706.320312 45.394531 706.078125 45.125 C 705.902344 44.929688 705.730469 44.730469 705.546875 44.550781 C 704.847656 43.886719 704.132812 43.242188 703.335938 42.699219 C 702.757812 42.300781 702.171875 41.921875 701.585938 41.535156 C 700.972656 41.128906 700.316406 40.8125 699.648438 40.511719 C 698.636719 40.0625 697.617188 39.644531 696.566406 39.300781 C 696.46875 39.269531 696.339844 39.285156 696.277344 39.121094 C 696.492188 39.140625 696.691406 39.160156 696.894531 39.183594 C 697.171875 39.210938 697.449219 39.242188 697.730469 39.28125 C 698.085938 39.328125 698.441406 39.378906 698.792969 39.441406 C 699.308594 39.535156 699.820312 39.636719 700.332031 39.746094 C 700.71875 39.832031 701.101562 39.9375 701.488281 40.042969 C 701.742188 40.109375 701.996094 40.191406 702.253906 40.265625 C 703.136719 40.519531 704.003906 40.832031 704.847656 41.207031 C 705.410156 41.457031 705.972656 41.699219 706.523438 41.976562 C 707.269531 42.351562 707.96875 42.8125 708.648438 43.296875 C 709.191406 43.679688 709.707031 44.09375 710.234375 44.496094 C 710.359375 44.589844 710.472656 44.699219 710.59375 44.804688 C 711.230469 45.363281 711.816406 45.964844 712.367188 46.609375 C 712.925781 47.261719 713.410156 47.957031 713.855469 48.683594 C 714.199219 49.242188 714.46875 49.84375 714.710938 50.453125 C 715.007812 51.191406 715.207031 51.957031 715.355469 52.738281 C 715.476562 53.3125 715.527344 53.921875 715.546875 54.640625 C 715.578125 55.605469 715.433594 56.550781 715.195312 57.484375 C 715.015625 58.1875 714.765625 58.859375 714.46875 59.523438 C 714.148438 60.234375 713.769531 60.914062 713.320312 61.550781 C 713.027344 61.960938 712.703125 62.347656 712.398438 62.746094 C 712 63.261719 711.539062 63.714844 711.070312 64.160156 C 710.761719 64.453125 710.421875 64.710938 710.105469 64.992188 C 709.578125 65.460938 709.011719 65.863281 708.425781 66.25 C 707.78125 66.675781 707.132812 67.085938 706.4375 67.429688 C 705.828125 67.726562 705.226562 68.035156 704.609375 68.320312 C 704.195312 68.507812 703.765625 68.667969 703.339844 68.828125 C 702.933594 68.980469 702.527344 69.121094 702.117188 69.25 C 701.261719 69.523438 700.398438 69.777344 699.515625 69.960938 C 698.929688 70.082031 698.339844 70.183594 697.75 70.289062 C 697.394531 70.355469 697.039062 70.417969 696.6875 70.46875 C 696.53125 70.496094 696.371094 70.476562 696.152344 70.476562 " fill-opacity="1" fill-rule="nonzero"/><path fill="rgb(100%, 83.529663%, 12.548828%)" d="M 691.886719 41.183594 C 692.257812 41.300781 692.578125 41.40625 692.902344 41.5 C 693.746094 41.75 694.539062 42.121094 695.300781 42.546875 C 695.957031 42.90625 696.582031 43.316406 697.203125 43.730469 C 697.390625 43.855469 698.144531 44.363281 698.324219 44.507812 C 699.0625 45.105469 699.75 45.757812 700.375 46.472656 C 700.921875 47.101562 701.425781 47.757812 701.851562 48.476562 C 702.402344 49.398438 702.875 50.359375 703.222656 51.382812 C 703.542969 52.339844 703.988281 54.859375 703.746094 56.265625 C 703.683594 56.761719 703.546875 57.246094 703.394531 57.722656 C 703.144531 58.519531 702.828125 59.289062 702.433594 60.023438 C 702.21875 60.417969 701.980469 60.796875 701.761719 61.191406 C 701.5 61.660156 701.175781 62.082031 700.851562 62.507812 C 700.660156 62.757812 700.445312 62.988281 700.238281 63.222656 C 699.957031 63.542969 699.6875 63.875 699.382812 64.167969 C 698.917969 64.605469 698.4375 65.023438 697.941406 65.425781 C 697.476562 65.800781 697 66.160156 696.503906 66.492188 C 696.027344 66.808594 695.527344 67.089844 695.027344 67.367188 C 694.613281 67.597656 694.195312 67.824219 693.761719 68.007812 C 693.113281 68.277344 692.457031 68.527344 691.796875 68.746094 C 691.257812 68.929688 690.703125 69.070312 690.148438 69.199219 C 689.695312 69.304688 689.230469 69.371094 688.769531 69.457031 C 688.59375 69.484375 688.421875 69.515625 688.226562 69.507812 C 688.304688 69.460938 688.386719 69.414062 688.464844 69.371094 C 690.136719 68.480469 691.765625 67.523438 693.3125 66.433594 C 694.433594 65.640625 695.488281 64.769531 696.453125 63.792969 C 696.992188 63.246094 697.746094 62.195312 698.101562 61.515625 C 698.660156 60.449219 698.859375 59.800781 699.160156 58.628906 C 699.632812 57.308594 699.351562 55.230469 699.335938 55 C 699.269531 54.113281 699.058594 53.257812 698.777344 52.414062 C 698.207031 50.722656 697.367188 49.160156 696.347656 47.703125 C 695.980469 47.171875 695.609375 46.636719 695.210938 46.128906 C 694.964844 45.816406 693.988281 44.761719 693.683594 44.484375 C 693.289062 44.125 692.878906 43.785156 692.46875 43.4375 C 692.300781 43.296875 692.128906 43.15625 691.953125 43.027344 C 691.867188 42.960938 691.828125 42.890625 691.832031 42.785156 C 691.851562 42.511719 691.871094 42.234375 691.882812 41.957031 C 691.890625 41.792969 691.886719 41.625 691.886719 41.460938 C 691.886719 41.382812 691.886719 41.304688 691.886719 41.183594 " fill-opacity="1" fill-rule="nonzero"/><path fill="rgb(100%, 83.529663%, 12.548828%)" d="M 691.328125 42.546875 C 691.175781 42.476562 691.054688 42.421875 690.9375 42.367188 C 690.027344 41.929688 689.074219 41.628906 688.082031 41.445312 C 686.191406 41.097656 684.320312 41.210938 682.460938 41.640625 C 681.597656 41.839844 680.746094 42.082031 679.921875 42.417969 C 679.210938 42.707031 678.519531 43.039062 677.859375 43.425781 C 677.796875 43.460938 677.734375 43.492188 677.671875 43.519531 C 677.65625 43.527344 677.640625 43.519531 677.59375 43.515625 C 677.5625 43.425781 677.519531 43.324219 677.488281 43.222656 C 677.339844 42.683594 677.191406 42.140625 676.964844 41.625 C 676.640625 40.882812 676.222656 40.195312 675.71875 39.554688 C 675.558594 39.351562 675.414062 39.132812 675.285156 38.902344 C 675 38.386719 675.039062 37.890625 675.425781 37.425781 C 675.738281 37.054688 676.125 36.789062 676.558594 36.589844 C 677.132812 36.328125 677.703125 36.058594 678.28125 35.820312 C 678.953125 35.546875 679.636719 35.292969 680.316406 35.046875 C 680.902344 34.835938 681.492188 34.628906 682.085938 34.457031 C 682.796875 34.25 683.519531 34.082031 684.238281 33.90625 C 685.105469 33.699219 685.980469 33.542969 686.871094 33.484375 C 687.441406 33.445312 688.011719 33.414062 688.582031 33.417969 C 688.929688 33.417969 689.234375 33.585938 689.507812 33.800781 C 689.773438 34.007812 689.992188 34.265625 690.136719 34.566406 C 690.285156 34.878906 690.425781 35.199219 690.527344 35.53125 C 690.742188 36.242188 690.875 36.976562 690.976562 37.714844 C 691.070312 38.402344 691.175781 39.09375 691.246094 39.785156 C 691.339844 40.640625 691.390625 41.503906 691.351562 42.367188 C 691.351562 42.414062 691.339844 42.460938 691.328125 42.546875 " fill-opacity="1" fill-rule="nonzero"/><path fill="rgb(100%, 83.529663%, 12.548828%)" d="M 673.921875 49.128906 C 674.035156 48.847656 674.132812 48.554688 674.261719 48.277344 C 674.574219 47.566406 674.953125 46.890625 675.449219 46.285156 C 675.894531 45.746094 676.40625 45.277344 676.960938 44.847656 C 677.992188 44.058594 679.136719 43.476562 680.308594 42.929688 C 680.515625 42.835938 680.722656 42.734375 680.9375 42.65625 C 681.167969 42.574219 681.40625 42.515625 681.640625 42.449219 C 681.859375 42.382812 682.082031 42.328125 682.296875 42.253906 C 682.980469 42.03125 683.6875 41.890625 684.394531 41.773438 C 685 41.671875 685.621094 41.660156 686.238281 41.6875 C 687.140625 41.730469 688.03125 41.851562 688.902344 42.085938 C 689.664062 42.292969 690.402344 42.574219 691.101562 42.957031 C 691.308594 43.070312 691.308594 43.070312 691.257812 43.308594 C 691.15625 43.78125 690.941406 44.207031 690.691406 44.609375 C 690.214844 45.375 689.605469 46.011719 688.824219 46.46875 C 688.492188 46.664062 688.136719 46.816406 687.742188 46.867188 C 687.355469 46.921875 686.988281 46.84375 686.625 46.730469 C 686.152344 46.574219 685.683594 46.414062 685.210938 46.257812 C 684.203125 45.925781 683.171875 45.753906 682.117188 45.695312 C 681.285156 45.644531 680.457031 45.65625 679.628906 45.710938 C 678.246094 45.804688 676.988281 46.25 675.855469 47.046875 C 675.433594 47.34375 675.078125 47.71875 674.765625 48.128906 C 674.527344 48.4375 674.296875 48.75 674.070312 49.0625 C 674.042969 49.101562 674.023438 49.148438 674.003906 49.191406 C 673.976562 49.171875 673.949219 49.152344 673.921875 49.128906 " fill-opacity="1" fill-rule="nonzero"/><path fill="rgb(0%, 0%, 0%)" d="M 691.714844 62.082031 C 691.726562 62.382812 691.667969 62.675781 691.589844 62.964844 C 691.398438 63.652344 690.988281 64.175781 690.4375 64.621094 C 690.117188 64.878906 689.789062 65.113281 689.433594 65.316406 C 688.808594 65.671875 688.152344 65.917969 687.457031 66.078125 C 687.023438 66.175781 686.308594 66.273438 685.382812 66.277344 C 684.644531 66.222656 683.914062 66.140625 683.203125 65.9375 C 682.507812 65.738281 681.847656 65.464844 681.210938 65.128906 C 680.878906 64.953125 680.566406 64.742188 680.277344 64.496094 C 680.070312 64.324219 679.878906 64.144531 679.691406 63.949219 C 679.390625 63.640625 679.226562 63.277344 679.152344 62.867188 C 679.109375 62.617188 679.066406 62.363281 679.074219 62.117188 C 679.089844 61.753906 679.140625 61.386719 679.339844 61.054688 C 679.34375 61.125 679.355469 61.199219 679.351562 61.273438 C 679.347656 61.667969 679.402344 62.054688 679.539062 62.429688 C 679.699219 62.871094 679.9375 63.253906 680.332031 63.539062 C 680.71875 63.820312 681.113281 64.078125 681.542969 64.273438 C 682.15625 64.546875 682.789062 64.75 683.441406 64.894531 C 683.871094 64.988281 684.300781 65.054688 684.738281 65.105469 C 685.023438 65.136719 685.304688 65.148438 685.585938 65.15625 C 686.265625 65.175781 686.925781 65.070312 687.585938 64.914062 C 688.203125 64.765625 688.789062 64.546875 689.34375 64.242188 C 689.800781 63.992188 690.265625 63.746094 690.628906 63.363281 C 691.003906 62.972656 691.257812 62.5 691.417969 61.980469 C 691.496094 61.738281 691.5625 61.488281 691.632812 61.242188 C 691.65625 61.242188 691.746094 61.664062 691.714844 62.082031 " fill-opacity="1" fill-rule="nonzero"/><path fill="rgb(0%, 0%, 0%)" d="M 678.234375 40.21875 C 678.191406 40.023438 678.207031 39.738281 678.429688 39.6875 C 678.695312 39.628906 678.78125 39.871094 678.828125 40.085938 C 678.875 40.296875 678.898438 40.550781 678.636719 40.613281 C 678.414062 40.664062 678.277344 40.410156 678.234375 40.21875 M 677.917969 40.730469 C 677.9375 40.820312 677.949219 40.917969 677.964844 41.007812 L 678.375 40.917969 C 678.367188 40.847656 678.359375 40.785156 678.34375 40.71875 L 678.347656 40.714844 C 678.476562 40.859375 678.648438 40.902344 678.828125 40.859375 C 679.230469 40.769531 679.335938 40.347656 679.257812 39.988281 C 679.171875 39.613281 678.875 39.296875 678.445312 39.394531 C 678.300781 39.425781 678.175781 39.542969 678.121094 39.679688 L 678.117188 39.679688 L 677.945312 38.90625 L 677.535156 39 Z M 677.917969 40.730469 " fill-opacity="1" fill-rule="nonzero"/><path fill="rgb(0%, 0%, 0%)" d="M 678.234375 40.21875 C 678.191406 40.023438 678.207031 39.738281 678.429688 39.6875 C 678.695312 39.628906 678.78125 39.871094 678.828125 40.085938 C 678.875 40.296875 678.898438 40.550781 678.636719 40.613281 C 678.414062 40.664062 678.277344 40.410156 678.234375 40.21875 M 677.917969 40.730469 C 677.9375 40.820312 677.949219 40.917969 677.964844 41.007812 L 678.375 40.917969 C 678.367188 40.847656 678.359375 40.785156 678.34375 40.71875 L 678.347656 40.714844 C 678.476562 40.859375 678.648438 40.902344 678.828125 40.859375 C 679.230469 40.769531 679.335938 40.347656 679.257812 39.988281 C 679.171875 39.613281 678.875 39.296875 678.445312 39.394531 C 678.300781 39.425781 678.175781 39.542969 678.121094 39.679688 L 678.117188 39.679688 L 677.945312 38.90625 L 677.535156 39 Z M 677.917969 40.730469 " fill-opacity="1" fill-rule="nonzero"/><path stroke-linecap="butt" transform="matrix(1.107594, 0, 0, 1.109889, 12.491514, 8.455593)" fill="none" stroke-linejoin="miter" d="M 601.071377 28.618314 C 601.032583 28.442339 601.04669 28.185416 601.247717 28.139663 C 601.487538 28.08687 601.565128 28.305079 601.607449 28.498651 C 601.649771 28.688704 601.670932 28.917471 601.434637 28.973783 C 601.23361 29.019536 601.110172 28.790769 601.071377 28.618314 Z M 600.785707 29.079368 C 600.803341 29.160316 600.813922 29.248304 600.828029 29.329252 L 601.198342 29.248304 C 601.191288 29.184953 601.184235 29.128641 601.170127 29.068809 L 601.173654 29.06529 C 601.290038 29.195511 601.445217 29.234226 601.607449 29.195511 C 601.970709 29.114563 602.065932 28.734457 601.995396 28.410664 C 601.917807 28.072792 601.649771 27.787713 601.261824 27.8757 C 601.131333 27.903856 601.018475 28.009441 600.9691 28.132624 L 600.965574 28.132624 L 600.810395 27.435763 L 600.440082 27.520231 Z M 600.785707 29.079368 " stroke="rgb(0%, 0%, 0%)" stroke-width="0.055" stroke-opacity="1" stroke-miterlimit="3.864"/><path fill="rgb(0%, 0%, 0%)" d="M 679.214844 39.265625 L 679.527344 40.660156 L 679.9375 40.570312 L 679.628906 39.175781 Z M 679.066406 38.65625 L 679.144531 39.015625 L 679.585938 38.917969 L 679.503906 38.558594 Z M 679.066406 38.65625 " fill-opacity="1" fill-rule="nonzero"/><path fill="rgb(0%, 0%, 0%)" d="M 679.214844 39.265625 L 679.527344 40.660156 L 679.9375 40.570312 L 679.628906 39.175781 Z M 679.066406 38.65625 L 679.144531 39.015625 L 679.585938 38.917969 L 679.503906 38.558594 Z M 679.066406 38.65625 " fill-opacity="1" fill-rule="nonzero"/><path stroke-linecap="butt" transform="matrix(1.107594, 0, 0, 1.109889, 12.491514, 8.455593)" fill="none" stroke-linejoin="miter" d="M 602.238745 29.016017 L 602.609058 28.931549 L 602.330441 27.675089 L 601.956602 27.759557 Z M 601.893119 27.534309 L 602.291647 27.446322 L 602.217584 27.122528 L 601.822584 27.210516 Z M 601.893119 27.534309 " stroke="rgb(0%, 0%, 0%)" stroke-width="0.055" stroke-opacity="1" stroke-miterlimit="3.864"/><path fill="rgb(0%, 0%, 0%)" d="M 680.316406 39.753906 C 680.269531 39.539062 680.246094 39.285156 680.511719 39.222656 C 680.734375 39.175781 680.867188 39.429688 680.910156 39.617188 C 680.953125 39.8125 680.9375 40.097656 680.714844 40.148438 C 680.453125 40.207031 680.363281 39.964844 680.316406 39.753906 M 680.792969 39.082031 L 680.785156 39.085938 C 680.683594 38.984375 680.515625 38.933594 680.371094 38.964844 C 679.941406 39.0625 679.808594 39.472656 679.890625 39.847656 C 679.972656 40.207031 680.246094 40.546875 680.648438 40.453125 C 680.828125 40.414062 680.964844 40.304688 681.019531 40.121094 L 681.027344 40.121094 C 681.039062 40.1875 681.058594 40.25 681.082031 40.316406 L 681.492188 40.222656 C 681.46875 40.132812 681.4375 40.039062 681.417969 39.949219 L 681.03125 38.21875 L 680.621094 38.3125 Z M 680.792969 39.082031 " fill-opacity="1" fill-rule="nonzero"/><path fill="rgb(0%, 0%, 0%)" d="M 680.316406 39.753906 C 680.269531 39.539062 680.246094 39.285156 680.511719 39.222656 C 680.734375 39.175781 680.867188 39.429688 680.910156 39.617188 C 680.953125 39.8125 680.9375 40.097656 680.714844 40.148438 C 680.453125 40.207031 680.363281 39.964844 680.316406 39.753906 M 680.792969 39.082031 L 680.785156 39.085938 C 680.683594 38.984375 680.515625 38.933594 680.371094 38.964844 C 679.941406 39.0625 679.808594 39.472656 679.890625 39.847656 C 679.972656 40.207031 680.246094 40.546875 680.648438 40.453125 C 680.828125 40.414062 680.964844 40.304688 681.019531 40.121094 L 681.027344 40.121094 C 681.039062 40.1875 681.058594 40.25 681.082031 40.316406 L 681.492188 40.222656 C 681.46875 40.132812 681.4375 40.039062 681.417969 39.949219 L 681.03125 38.21875 L 680.621094 38.3125 Z M 680.792969 39.082031 " fill-opacity="1" fill-rule="nonzero"/><path stroke-linecap="butt" transform="matrix(1.107594, 0, 0, 1.109889, 12.491514, 8.455593)" fill="none" stroke-linejoin="miter" d="M 602.951156 28.199494 C 602.908835 28.005922 602.887674 27.777155 603.127496 27.720843 C 603.328523 27.678609 603.448434 27.907376 603.487228 28.076312 C 603.526023 28.252286 603.511916 28.50921 603.310889 28.554963 C 603.074594 28.607755 602.993478 28.389547 602.951156 28.199494 Z M 603.381425 27.594141 L 603.374371 27.59766 C 603.282674 27.506153 603.131022 27.4604 603.000531 27.488556 C 602.612584 27.576543 602.492674 27.94609 602.566736 28.283962 C 602.640799 28.607755 602.887674 28.913952 603.250933 28.829484 C 603.413166 28.794289 603.536603 28.695743 603.585978 28.530327 L 603.593032 28.530327 C 603.603612 28.590158 603.621246 28.64647 603.642407 28.706301 L 604.01272 28.621833 C 603.991559 28.540885 603.963345 28.456417 603.945711 28.375469 L 603.596559 26.816332 L 603.226246 26.9008 Z M 603.381425 27.594141 " stroke="rgb(0%, 0%, 0%)" stroke-width="0.055" stroke-opacity="1" stroke-miterlimit="3.864"/><path fill="rgb(0%, 0%, 0%)" d="M 681.828125 39.414062 C 681.78125 39.199219 681.757812 38.945312 682.019531 38.886719 C 682.242188 38.835938 682.378906 39.089844 682.421875 39.28125 C 682.460938 39.472656 682.445312 39.761719 682.226562 39.808594 C 681.964844 39.867188 681.875 39.628906 681.828125 39.414062 M 682.300781 38.746094 L 682.296875 38.746094 C 682.191406 38.648438 682.023438 38.597656 681.882812 38.625 C 681.453125 38.722656 681.316406 39.136719 681.398438 39.511719 C 681.480469 39.871094 681.753906 40.207031 682.15625 40.117188 C 682.335938 40.078125 682.476562 39.96875 682.527344 39.785156 L 682.535156 39.785156 C 682.550781 39.851562 682.570312 39.910156 682.589844 39.976562 L 683.003906 39.886719 C 682.976562 39.796875 682.945312 39.703125 682.925781 39.609375 L 682.542969 37.882812 L 682.128906 37.972656 Z M 682.300781 38.746094 " fill-opacity="1" fill-rule="nonzero"/><path fill="rgb(0%, 0%, 0%)" d="M 681.828125 39.414062 C 681.78125 39.199219 681.757812 38.945312 682.019531 38.886719 C 682.242188 38.835938 682.378906 39.089844 682.421875 39.28125 C 682.460938 39.472656 682.445312 39.761719 682.226562 39.808594 C 681.964844 39.867188 681.875 39.628906 681.828125 39.414062 M 682.300781 38.746094 L 682.296875 38.746094 C 682.191406 38.648438 682.023438 38.597656 681.882812 38.625 C 681.453125 38.722656 681.316406 39.136719 681.398438 39.511719 C 681.480469 39.871094 681.753906 40.207031 682.15625 40.117188 C 682.335938 40.078125 682.476562 39.96875 682.527344 39.785156 L 682.535156 39.785156 C 682.550781 39.851562 682.570312 39.910156 682.589844 39.976562 L 683.003906 39.886719 C 682.976562 39.796875 682.945312 39.703125 682.925781 39.609375 L 682.542969 37.882812 L 682.128906 37.972656 Z M 682.300781 38.746094 " fill-opacity="1" fill-rule="nonzero"/><path stroke-linecap="butt" transform="matrix(1.107594, 0, 0, 1.109889, 12.491514, 8.455593)" fill="none" stroke-linejoin="miter" d="M 604.316024 27.893298 C 604.273702 27.699726 604.252542 27.470958 604.488837 27.418166 C 604.689864 27.372413 604.813301 27.60118 604.852096 27.773635 C 604.887364 27.94609 604.873257 28.206533 604.675756 28.248767 C 604.439461 28.301559 604.358345 28.08687 604.316024 27.893298 Z M 604.742765 27.291464 L 604.739239 27.291464 C 604.644015 27.203477 604.492363 27.157723 604.365399 27.18236 C 603.977452 27.270347 603.854014 27.643414 603.928077 27.981285 C 604.00214 28.305079 604.249015 28.607755 604.612274 28.526807 C 604.774507 28.491612 604.901471 28.393066 604.947319 28.22765 L 604.954373 28.22765 C 604.96848 28.287481 604.986114 28.340274 605.003748 28.400105 L 605.377588 28.319157 C 605.3529 28.238208 605.324686 28.153741 605.307052 28.069273 L 604.961426 26.513656 L 604.587587 26.594604 Z M 604.742765 27.291464 " stroke="rgb(0%, 0%, 0%)" stroke-width="0.055" stroke-opacity="1" stroke-miterlimit="3.864"/><path fill="rgb(0%, 0%, 0%)" d="M 684.046875 39.648438 L 684.460938 39.558594 C 684.433594 39.476562 684.410156 39.394531 684.390625 39.3125 L 684.132812 38.167969 L 683.722656 38.257812 L 683.90625 39.09375 C 683.949219 39.300781 683.863281 39.445312 683.730469 39.472656 C 683.53125 39.519531 683.449219 39.355469 683.414062 39.203125 L 683.226562 38.371094 L 682.8125 38.460938 L 683.019531 39.367188 C 683.027344 39.414062 683.054688 39.503906 683.09375 39.582031 C 683.1875 39.777344 683.476562 39.820312 683.617188 39.792969 C 683.824219 39.746094 683.9375 39.628906 683.996094 39.480469 Z M 684.046875 39.648438 " fill-opacity="1" fill-rule="nonzero"/><path stroke-linecap="butt" transform="matrix(1.107594, 0, 0, 1.109889, 12.491514, 8.455593)" fill-opacity="1" fill="rgb(0%, 0%, 0%)" fill-rule="nonzero" stroke-linejoin="miter" d="M 606.31924 28.104468 L 606.69308 28.023519 C 606.668393 27.94961 606.647232 27.8757 606.629598 27.801791 L 606.39683 26.770579 L 606.026517 26.851527 L 606.192276 27.604699 C 606.231071 27.791233 606.153481 27.921454 606.03357 27.94609 C 605.853704 27.988324 605.779642 27.840505 605.7479 27.703245 L 605.578615 26.953593 L 605.204775 27.034541 L 605.391695 27.851064 C 605.398748 27.893298 605.423436 27.974246 605.458704 28.044636 C 605.543347 28.220611 605.804329 28.259325 605.931294 28.234689 C 606.118213 28.192455 606.22049 28.08687 606.273392 27.953129 Z M 606.31924 28.104468 " stroke="rgb(0%, 0%, 0%)" stroke-width="0.055" stroke-opacity="1" stroke-miterlimit="3.864"/><path fill="rgb(0%, 0%, 0%)" d="M 684.191406 37.503906 L 684.605469 37.410156 L 685.050781 39.417969 L 684.636719 39.507812 Z M 684.191406 37.503906 " fill-opacity="1" fill-rule="nonzero"/><path fill="rgb(0%, 0%, 0%)" d="M 684.191406 37.503906 L 684.605469 37.410156 L 685.050781 39.417969 L 684.636719 39.507812 Z M 684.191406 37.503906 " fill-opacity="1" fill-rule="nonzero"/><path stroke-linecap="butt" transform="matrix(1.080902, -0.24219, 0.24169, 1.083143, 22.161413, 156.127462)" fill="none" stroke-linejoin="miter" d="M 606.650674 26.114575 L 607.029727 26.116384 L 607.031553 27.966878 L 606.64829 27.967734 Z M 606.650674 26.114575 " stroke="rgb(0%, 0%, 0%)" stroke-width="0.055" stroke-opacity="1" stroke-miterlimit="3.864"/><path fill="rgb(0%, 0%, 0%)" d="M 685.28125 37.910156 L 684.863281 38.003906 C 684.886719 38.09375 684.917969 38.1875 684.9375 38.277344 L 685.304688 39.929688 L 685.71875 39.835938 L 685.554688 39.105469 L 685.558594 39.105469 C 685.683594 39.25 685.855469 39.289062 686.035156 39.25 C 686.4375 39.160156 686.542969 38.738281 686.464844 38.378906 C 686.382812 38.003906 686.082031 37.6875 685.652344 37.78125 C 685.511719 37.8125 685.382812 37.933594 685.332031 38.070312 L 685.324219 38.070312 Z M 685.445312 38.605469 C 685.402344 38.414062 685.417969 38.128906 685.640625 38.078125 C 685.902344 38.019531 685.992188 38.257812 686.039062 38.472656 C 686.085938 38.6875 686.109375 38.941406 685.84375 39 C 685.621094 39.050781 685.488281 38.800781 685.445312 38.605469 " fill-opacity="1" fill-rule="nonzero"/><path fill="rgb(0%, 0%, 0%)" d="M 685.28125 37.910156 L 684.863281 38.003906 C 684.886719 38.09375 684.917969 38.1875 684.9375 38.277344 L 685.304688 39.929688 L 685.71875 39.835938 L 685.554688 39.105469 L 685.558594 39.105469 C 685.683594 39.25 685.855469 39.289062 686.035156 39.25 C 686.4375 39.160156 686.542969 38.738281 686.464844 38.378906 C 686.382812 38.003906 686.082031 37.6875 685.652344 37.78125 C 685.511719 37.8125 685.382812 37.933594 685.332031 38.070312 L 685.324219 38.070312 Z M 685.445312 38.605469 C 685.402344 38.414062 685.417969 38.128906 685.640625 38.078125 C 685.902344 38.019531 685.992188 38.257812 686.039062 38.472656 C 686.085938 38.6875 686.109375 38.941406 685.84375 39 C 685.621094 39.050781 685.488281 38.800781 685.445312 38.605469 " fill-opacity="1" fill-rule="nonzero"/><path stroke-linecap="butt" transform="matrix(1.107594, 0, 0, 1.109889, 12.491514, 8.455593)" fill="none" stroke-linejoin="miter" d="M 607.433706 26.538292 L 607.056339 26.62276 C 607.0775 26.703708 607.105714 26.788176 607.123348 26.869125 L 607.454867 28.357871 L 607.828706 28.273403 L 607.680581 27.615258 L 607.684108 27.615258 C 607.796965 27.745479 607.952144 27.780674 608.114376 27.745479 C 608.477636 27.664531 608.572859 27.284425 608.502323 26.960632 C 608.428261 26.62276 608.156698 26.337681 607.768751 26.422149 C 607.641787 26.450305 607.525402 26.559409 607.479554 26.682591 L 607.472501 26.682591 Z M 607.581831 27.164762 C 607.543036 26.992307 607.557144 26.735384 607.758171 26.68963 C 607.994466 26.636838 608.075582 26.851527 608.117903 27.045099 C 608.160225 27.238672 608.181385 27.467439 607.941564 27.520231 C 607.740537 27.565985 607.620626 27.340737 607.581831 27.164762 Z M 607.581831 27.164762 " stroke="rgb(0%, 0%, 0%)" stroke-width="0.055" stroke-opacity="1" stroke-miterlimit="3.864"/><path fill="rgb(0%, 0%, 0%)" d="M 687.152344 38.957031 L 686.964844 38.117188 C 686.925781 37.914062 687.015625 37.769531 687.144531 37.742188 C 687.347656 37.695312 687.425781 37.855469 687.460938 38.007812 L 687.648438 38.84375 L 688.058594 38.753906 L 687.859375 37.84375 C 687.847656 37.796875 687.824219 37.710938 687.78125 37.628906 C 687.6875 37.4375 687.398438 37.394531 687.257812 37.421875 C 687.050781 37.46875 686.941406 37.582031 686.882812 37.730469 L 686.875 37.726562 L 686.703125 36.949219 L 686.292969 37.042969 L 686.738281 39.046875 Z M 687.152344 38.957031 " fill-opacity="1" fill-rule="nonzero"/><path stroke-linecap="butt" transform="matrix(1.107594, 0, 0, 1.109889, 12.491514, 8.455593)" fill-opacity="1" fill="rgb(0%, 0%, 0%)" fill-rule="nonzero" stroke-linejoin="miter" d="M 609.123038 27.481517 L 608.953752 26.724825 C 608.918484 26.541812 608.999601 26.41159 609.115985 26.386954 C 609.299378 26.34472 609.369913 26.489019 609.401655 26.626279 L 609.57094 27.379452 L 609.941253 27.298503 L 609.761387 26.478461 C 609.750807 26.436227 609.729646 26.358798 609.690851 26.284888 C 609.606208 26.112433 609.345226 26.073719 609.218262 26.098355 C 609.031342 26.140589 608.932592 26.242654 608.87969 26.376395 L 608.872636 26.372876 L 608.717457 25.672496 L 608.347144 25.756964 L 608.749198 27.562465 Z M 609.123038 27.481517 " stroke="rgb(0%, 0%, 0%)" stroke-width="0.055" stroke-opacity="1" stroke-miterlimit="3.864"/><path fill="rgb(0%, 0%, 0%)" d="M 689.085938 37.453125 C 689 37.148438 688.726562 37.097656 688.4375 37.160156 C 688.195312 37.214844 687.875 37.421875 687.941406 37.714844 C 688.011719 38.039062 688.269531 38.042969 688.546875 38.046875 C 688.632812 38.046875 688.84375 38.050781 688.867188 38.164062 C 688.890625 38.273438 688.816406 38.335938 688.707031 38.363281 C 688.585938 38.390625 688.476562 38.351562 688.441406 38.242188 L 688.058594 38.328125 C 688.136719 38.648438 688.445312 38.710938 688.765625 38.640625 C 689.023438 38.582031 689.359375 38.347656 689.289062 38.042969 C 689.171875 37.519531 688.410156 37.820312 688.363281 37.601562 C 688.34375 37.511719 688.386719 37.464844 688.5 37.441406 C 688.59375 37.417969 688.691406 37.441406 688.71875 37.535156 Z M 689.085938 37.453125 " fill-opacity="1" fill-rule="nonzero"/><path stroke-linecap="butt" transform="matrix(1.107594, 0, 0, 1.109889, 12.491514, 8.455593)" fill-opacity="1" fill="rgb(0%, 0%, 0%)" fill-rule="nonzero" stroke-linejoin="miter" d="M 610.868799 26.126511 C 610.79121 25.85199 610.544334 25.806237 610.283352 25.862549 C 610.064691 25.911822 609.775494 26.098355 609.83545 26.362317 C 609.898932 26.654435 610.1317 26.657955 610.382102 26.661474 C 610.459692 26.661474 610.650138 26.664994 610.671299 26.767059 C 610.69246 26.865605 610.625451 26.921917 610.526701 26.946554 C 610.41737 26.97119 610.31862 26.935995 610.286879 26.837449 L 609.941253 26.914878 C 610.011789 27.203477 610.290406 27.259789 610.579602 27.196438 C 610.81237 27.143645 611.115674 26.932476 611.052192 26.657955 C 610.946388 26.186343 610.258664 26.457344 610.216343 26.260252 C 610.198709 26.179304 610.237504 26.13707 610.339781 26.115953 C 610.424424 26.094836 610.512593 26.115953 610.537281 26.200421 Z M 610.868799 26.126511 " stroke="rgb(0%, 0%, 0%)" stroke-width="0.055" stroke-opacity="1" stroke-miterlimit="3.864"/><path fill="rgb(100%, 83.529663%, 12.548828%)" d="M 679.332031 57.46875 C 680.890625 57.46875 682.308594 57.777344 683.398438 58.28125 C 683.414062 57.941406 683.421875 57.597656 683.421875 57.25 C 683.421875 52.039062 681.574219 47.8125 679.296875 47.8125 C 677.019531 47.8125 675.171875 52.039062 675.171875 57.25 C 675.171875 57.609375 675.179688 57.964844 675.199219 58.316406 C 676.296875 57.789062 677.746094 57.46875 679.332031 57.46875 " fill-opacity="1" fill-rule="nonzero"/><path fill="rgb(0%, 0%, 0%)" d="M 679.332031 57.492188 C 680.214844 57.492188 681.050781 57.589844 681.804688 57.769531 C 681.8125 57.628906 681.816406 57.488281 681.816406 57.347656 C 681.816406 54.640625 680.6875 52.445312 679.296875 52.445312 C 677.90625 52.445312 676.78125 54.640625 676.78125 57.347656 C 676.78125 57.496094 676.78125 57.640625 676.789062 57.785156 C 677.566406 57.597656 678.429688 57.492188 679.332031 57.492188 " fill-opacity="1" fill-rule="nonzero"/><path fill="rgb(100%, 100%, 100%)" d="M 679.042969 53.285156 C 679.042969 54.195312 678.519531 54.929688 677.875 54.929688 C 677.230469 54.929688 676.707031 54.195312 676.707031 53.285156 C 676.707031 52.378906 677.230469 51.640625 677.875 51.640625 C 678.519531 51.640625 679.042969 52.378906 679.042969 53.285156 " fill-opacity="1" fill-rule="nonzero"/><path fill="rgb(100%, 83.529663%, 12.548828%)" d="M 692.015625 57.273438 C 693.570312 57.273438 694.992188 57.582031 696.078125 58.085938 C 696.09375 57.746094 696.105469 57.402344 696.105469 57.054688 C 696.105469 51.84375 694.257812 47.617188 691.976562 47.617188 C 689.699219 47.617188 687.851562 51.84375 687.851562 57.054688 C 687.851562 57.414062 687.859375 57.769531 687.878906 58.121094 C 688.976562 57.59375 690.425781 57.273438 692.015625 57.273438 " fill-opacity="1" fill-rule="nonzero"/><path fill="rgb(0%, 0%, 0%)" d="M 692.015625 57.296875 C 692.894531 57.296875 693.730469 57.394531 694.488281 57.574219 C 694.492188 57.433594 694.496094 57.292969 694.496094 57.152344 C 694.496094 54.445312 693.371094 52.25 691.976562 52.25 C 690.585938 52.25 689.460938 54.445312 689.460938 57.152344 C 689.460938 57.300781 689.460938 57.445312 689.46875 57.589844 C 690.246094 57.402344 691.105469 57.296875 692.015625 57.296875 " fill-opacity="1" fill-rule="nonzero"/><path fill="rgb(100%, 100%, 100%)" d="M 691.722656 53.089844 C 691.722656 54 691.199219 54.734375 690.554688 54.734375 C 689.910156 54.734375 689.386719 54 689.386719 53.089844 C 689.386719 52.183594 689.910156 51.445312 690.554688 51.445312 C 691.199219 51.445312 691.722656 52.183594 691.722656 53.089844 " fill-opacity="1" fill-rule="nonzero"/><g clip-path="url(#clip-14)"><path fill="rgb(0%, 0%, 0%)" d="M 722.417969 20.949219 C 721.914062 23.582031 720.871094 25.996094 719.390625 28.222656 C 717.445312 31.140625 714.917969 33.441406 711.925781 35.242188 C 709.320312 36.808594 706.515625 37.878906 703.578125 38.617188 C 703.554688 38.621094 703.53125 38.617188 703.46875 38.617188 C 703.492188 38.488281 703.507812 38.378906 703.527344 38.273438 C 704.085938 34.984375 704.121094 31.691406 703.554688 28.402344 C 703.046875 25.453125 702.039062 22.683594 700.414062 20.15625 C 699.851562 19.277344 699.21875 18.441406 698.523438 17.664062 C 698.453125 17.585938 698.390625 17.507812 698.316406 17.421875 C 698.367188 17.359375 698.410156 17.300781 698.457031 17.25 C 700.570312 15.015625 702.976562 13.167969 705.746094 11.8125 C 707.445312 10.980469 709.214844 10.371094 711.085938 10.058594 C 712.9375 9.746094 714.785156 9.730469 716.621094 10.179688 C 717.710938 10.449219 718.734375 10.878906 719.65625 11.53125 C 721.355469 12.730469 722.335938 14.359375 722.59375 16.429688 C 722.785156 17.949219 722.707031 19.453125 722.417969 20.949219 M 704.851562 41.214844 C 705.410156 41.464844 705.976562 41.707031 706.523438 41.984375 C 707.273438 42.363281 707.96875 42.820312 708.652344 43.304688 C 709.191406 43.6875 709.710938 44.101562 710.234375 44.503906 C 710.359375 44.597656 710.476562 44.707031 710.59375 44.8125 C 711.230469 45.371094 711.820312 45.976562 712.371094 46.617188 C 712.925781 47.269531 713.414062 47.96875 713.859375 48.695312 C 714.203125 49.253906 714.472656 49.851562 714.714844 50.460938 C 715.011719 51.199219 715.210938 51.964844 715.359375 52.746094 C 715.441406 53.183594 715.46875 53.511719 715.515625 53.957031 C 715.535156 54.144531 715.542969 54.460938 715.550781 54.648438 C 715.578125 55.613281 715.4375 56.558594 715.199219 57.492188 C 715.019531 58.195312 714.769531 58.867188 714.472656 59.53125 C 714.152344 60.246094 713.769531 60.921875 713.324219 61.558594 C 713.035156 61.972656 712.707031 62.355469 712.398438 62.753906 C 712.003906 63.269531 711.542969 63.726562 711.074219 64.167969 C 710.765625 64.460938 710.425781 64.71875 710.109375 65 C 709.585938 65.46875 709.015625 65.871094 708.429688 66.257812 C 707.785156 66.683594 707.136719 67.097656 706.441406 67.4375 C 705.832031 67.738281 705.230469 68.046875 704.613281 68.328125 C 704.199219 68.519531 703.769531 68.679688 703.34375 68.839844 C 702.941406 68.988281 702.53125 69.128906 702.121094 69.261719 C 701.265625 69.535156 700.402344 69.785156 699.523438 69.972656 C 698.9375 70.09375 698.34375 70.191406 697.753906 70.296875 C 697.398438 70.363281 697.046875 70.429688 696.691406 70.476562 C 696.539062 70.5 696.378906 70.484375 696.160156 70.484375 C 696.277344 70.40625 696.347656 70.34375 696.429688 70.308594 C 697.300781 69.96875 698.171875 69.632812 699.019531 69.242188 C 699.738281 68.910156 700.429688 68.53125 701.109375 68.132812 C 701.925781 67.644531 702.722656 67.125 703.453125 66.507812 C 703.855469 66.167969 704.269531 65.839844 704.65625 65.480469 C 705.191406 64.988281 705.722656 64.488281 706.21875 63.960938 C 706.707031 63.4375 707.152344 62.875 707.558594 62.28125 C 707.871094 61.824219 708.148438 61.351562 708.421875 60.871094 C 708.847656 60.121094 709.1875 59.332031 709.429688 58.507812 C 709.578125 58.007812 709.691406 57.5 709.800781 56.988281 C 709.878906 56.640625 709.941406 56.285156 709.980469 55.929688 C 710.019531 55.605469 710.027344 55.273438 710.03125 54.941406 C 710.03125 54.699219 709.984375 53.886719 709.980469 53.835938 C 709.945312 53.492188 709.921875 53.152344 709.871094 52.808594 C 709.8125 52.429688 709.75 52.046875 709.65625 51.679688 C 709.539062 51.238281 709.394531 50.804688 709.242188 50.375 C 709.113281 50.003906 708.210938 48.0625 707.867188 47.484375 C 707.546875 46.953125 707.171875 46.449219 706.800781 45.949219 C 706.585938 45.660156 706.328125 45.398438 706.085938 45.128906 C 705.914062 44.933594 705.738281 44.738281 705.554688 44.558594 C 704.855469 43.890625 704.140625 43.25 703.347656 42.703125 C 702.769531 42.308594 702.179688 41.925781 701.59375 41.539062 C 700.980469 41.136719 700.324219 40.820312 699.65625 40.519531 C 698.648438 40.066406 697.625 39.652344 696.574219 39.308594 C 696.476562 39.273438 696.347656 39.292969 696.285156 39.125 C 696.5 39.148438 696.699219 39.167969 696.898438 39.1875 C 697.179688 39.21875 697.460938 39.246094 697.738281 39.285156 C 698.09375 39.332031 698.449219 39.382812 698.800781 39.449219 C 699.316406 39.542969 699.828125 39.640625 700.339844 39.753906 C 700.726562 39.839844 701.113281 39.945312 701.496094 40.046875 C 701.75 40.117188 702.003906 40.199219 702.261719 40.273438 C 703.144531 40.527344 704.007812 40.839844 704.851562 41.214844 M 693.757812 68.007812 C 693.113281 68.277344 692.457031 68.527344 691.796875 68.746094 C 691.257812 68.929688 690.703125 69.070312 690.148438 69.199219 C 689.695312 69.308594 689.230469 69.371094 688.769531 69.457031 C 688.597656 69.484375 688.421875 69.515625 688.230469 69.507812 C 688.304688 69.460938 688.386719 69.417969 688.464844 69.371094 C 690.136719 68.484375 691.765625 67.523438 693.3125 66.433594 C 694.433594 65.644531 695.488281 64.769531 696.453125 63.792969 C 696.988281 63.246094 697.746094 62.195312 698.101562 61.515625 C 698.648438 60.5625 698.835938 60.003906 699.160156 58.628906 C 699.609375 57.152344 699.351562 55.230469 699.335938 55 C 699.273438 54.109375 699.058594 53.257812 698.777344 52.417969 C 698.207031 50.71875 697.371094 49.164062 696.347656 47.703125 C 695.976562 47.171875 695.609375 46.640625 695.210938 46.128906 C 694.960938 45.816406 693.984375 44.800781 693.683594 44.488281 C 693.289062 44.125 692.875 43.785156 692.46875 43.441406 C 692.300781 43.296875 692.128906 43.15625 691.953125 43.027344 C 691.867188 42.964844 691.828125 42.890625 691.835938 42.785156 C 691.851562 42.511719 691.871094 42.234375 691.882812 41.957031 C 691.890625 41.792969 691.886719 41.625 691.886719 41.460938 C 691.886719 41.382812 691.886719 41.304688 691.886719 41.183594 C 692.257812 41.300781 692.585938 41.386719 692.902344 41.5 C 693.828125 41.835938 694.539062 42.121094 695.304688 42.546875 C 695.957031 42.90625 696.585938 43.316406 697.207031 43.730469 C 697.394531 43.859375 698.191406 44.390625 698.324219 44.507812 C 699.0625 45.105469 699.75 45.757812 700.378906 46.472656 C 700.925781 47.101562 701.429688 47.757812 701.855469 48.476562 C 702.40625 49.398438 702.878906 50.359375 703.222656 51.382812 C 703.546875 52.339844 703.988281 54.566406 703.746094 56.265625 C 703.683594 56.761719 703.546875 57.246094 703.398438 57.722656 C 703.144531 58.519531 702.832031 59.289062 702.433594 60.023438 C 702.222656 60.417969 701.980469 60.796875 701.765625 61.191406 C 701.503906 61.660156 701.179688 62.082031 700.855469 62.507812 C 700.664062 62.753906 700.449219 62.988281 700.238281 63.222656 C 699.957031 63.539062 699.691406 63.875 699.382812 64.167969 C 698.921875 64.605469 698.4375 65.023438 697.945312 65.421875 C 697.480469 65.796875 697.003906 66.15625 696.507812 66.488281 C 696.03125 66.804688 695.53125 67.085938 695.03125 67.367188 C 694.613281 67.597656 694.195312 67.824219 693.757812 68.007812 M 686.15625 69.449219 C 686.09375 69.480469 686.027344 69.507812 685.953125 69.539062 C 685.320312 69.289062 684.679688 69.046875 684.046875 68.78125 C 683.582031 68.585938 683.125 68.367188 682.667969 68.148438 C 681.5625 67.613281 680.476562 67.042969 679.449219 66.359375 C 679.015625 66.070312 678.597656 65.746094 678.1875 65.417969 C 677.722656 65.039062 677.257812 64.65625 676.828125 64.242188 C 676.398438 63.832031 676.019531 63.378906 675.609375 62.949219 C 675.164062 62.488281 674.789062 61.972656 674.433594 61.441406 C 674.078125 60.910156 673.792969 60.335938 673.546875 59.742188 C 673.476562 59.574219 673.511719 59.457031 673.640625 59.328125 C 673.949219 59.023438 674.273438 58.734375 674.644531 58.511719 C 674.671875 58.492188 674.695312 58.472656 674.714844 58.453125 C 674.394531 57.496094 674.191406 56.433594 674.148438 55.3125 C 673.980469 50.933594 676.238281 47.289062 679.195312 47.175781 C 682.15625 47.058594 684.691406 50.515625 684.863281 54.890625 C 684.910156 56.171875 684.71875 57.480469 684.394531 58.566406 C 684.378906 58.703125 684.460938 58.65625 684.660156 58.753906 C 684.835938 58.839844 684.9375 58.980469 685.050781 59.109375 C 685.277344 59.378906 685.429688 59.6875 685.582031 60.0625 C 685.742188 59.714844 685.882812 59.398438 686.125 59.160156 C 686.351562 58.9375 686.601562 58.742188 686.851562 58.53125 C 686.503906 57.558594 686.292969 56.476562 686.246094 55.332031 C 686.148438 52.804688 686.890625 50.523438 688.125 49.015625 C 688.140625 48.992188 688.15625 48.972656 688.171875 48.953125 C 688.203125 48.921875 688.230469 48.886719 688.257812 48.851562 C 688.742188 48.28125 689.308594 47.8125 690.015625 47.511719 C 690.0625 47.492188 690.105469 47.472656 690.148438 47.457031 C 690.148438 47.453125 690.152344 47.453125 690.152344 47.453125 C 690.207031 47.433594 690.261719 47.414062 690.316406 47.390625 C 690.710938 47.25 691.121094 47.164062 691.542969 47.148438 C 694.640625 47.027344 697.289062 50.492188 697.460938 54.890625 C 697.507812 56.046875 697.375 57.15625 697.097656 58.160156 C 697.085938 58.222656 697.074219 58.273438 697.0625 58.320312 C 697.140625 58.367188 697.21875 58.402344 697.285156 58.453125 C 697.523438 58.636719 697.757812 58.824219 697.996094 59.007812 C 698.097656 59.085938 698.105469 59.179688 698.058594 59.304688 C 697.804688 60.003906 697.5 60.679688 697.085938 61.304688 C 696.105469 62.78125 694.882812 64.011719 693.472656 65.074219 C 691.191406 66.800781 688.734375 68.222656 686.15625 69.449219 M 674.257812 48.277344 C 674.574219 47.566406 674.949219 46.886719 675.449219 46.285156 C 675.894531 45.746094 676.40625 45.277344 676.960938 44.847656 C 677.988281 44.058594 679.136719 43.476562 680.308594 42.929688 C 680.515625 42.835938 680.722656 42.734375 680.9375 42.65625 C 681.167969 42.574219 681.402344 42.515625 681.636719 42.449219 C 681.859375 42.382812 682.078125 42.328125 682.296875 42.253906 C 682.980469 42.03125 683.683594 41.890625 684.390625 41.773438 C 685 41.675781 685.617188 41.660156 686.234375 41.6875 C 687.140625 41.730469 688.027344 41.851562 688.902344 42.089844 C 689.664062 42.296875 690.402344 42.574219 691.101562 42.957031 C 691.304688 43.070312 691.308594 43.074219 691.257812 43.3125 C 691.152344 43.78125 690.941406 44.207031 690.6875 44.609375 C 690.210938 45.375 689.601562 46.011719 688.824219 46.46875 C 688.488281 46.664062 688.136719 46.816406 687.742188 46.871094 C 687.351562 46.925781 686.988281 46.847656 686.625 46.730469 C 686.152344 46.578125 685.679688 46.414062 685.210938 46.257812 C 684.203125 45.925781 683.171875 45.753906 682.117188 45.695312 C 681.285156 45.648438 680.457031 45.65625 679.628906 45.714844 C 678.242188 45.808594 676.988281 46.25 675.855469 47.046875 C 675.433594 47.34375 675.078125 47.722656 674.765625 48.128906 C 674.527344 48.4375 674.296875 48.753906 674.066406 49.0625 C 674.039062 49.101562 674.023438 49.148438 674 49.191406 C 673.972656 49.167969 673.949219 49.148438 673.921875 49.128906 C 674.03125 48.84375 674.132812 48.554688 674.257812 48.277344 M 676.964844 41.625 C 676.636719 40.882812 676.21875 40.195312 675.71875 39.558594 C 675.558594 39.351562 675.414062 39.132812 675.285156 38.902344 C 675.003906 38.386719 675.039062 37.890625 675.425781 37.429688 C 675.738281 37.054688 676.125 36.789062 676.558594 36.589844 C 677.132812 36.328125 677.699219 36.058594 678.28125 35.820312 C 678.953125 35.546875 679.636719 35.292969 680.316406 35.046875 C 680.902344 34.835938 681.488281 34.628906 682.085938 34.457031 C 682.796875 34.253906 683.519531 34.082031 684.238281 33.90625 C 685.105469 33.699219 685.980469 33.542969 686.871094 33.484375 C 687.441406 33.449219 688.011719 33.417969 688.582031 33.417969 C 688.929688 33.417969 689.234375 33.589844 689.507812 33.800781 C 689.773438 34.011719 689.992188 34.265625 690.136719 34.566406 C 690.285156 34.878906 690.425781 35.199219 690.527344 35.53125 C 690.742188 36.246094 690.875 36.980469 690.976562 37.714844 C 691.070312 38.40625 691.171875 39.09375 691.246094 39.785156 C 691.339844 40.644531 691.390625 41.503906 691.355469 42.371094 C 691.351562 42.414062 691.339844 42.460938 691.328125 42.550781 C 691.175781 42.480469 691.054688 42.425781 690.9375 42.367188 C 690.027344 41.933594 689.074219 41.632812 688.082031 41.445312 C 686.191406 41.097656 684.324219 41.210938 682.460938 41.644531 C 681.597656 41.84375 680.746094 42.085938 679.925781 42.417969 C 679.214844 42.707031 678.523438 43.039062 677.859375 43.425781 C 677.800781 43.460938 677.734375 43.492188 677.671875 43.523438 C 677.660156 43.527344 677.640625 43.519531 677.59375 43.515625 C 677.5625 43.429688 677.519531 43.328125 677.492188 43.222656 C 677.339844 42.679688 677.191406 42.140625 676.964844 41.625 M 724.828125 17.675781 C 724.816406 17.527344 724.820312 17.375 724.800781 17.226562 C 724.679688 16.292969 724.460938 15.386719 724.089844 14.527344 C 723.03125 12.0625 721.28125 10.28125 718.820312 9.21875 C 717.625 8.699219 716.359375 8.523438 715.074219 8.46875 C 713.6875 8.410156 712.308594 8.542969 710.949219 8.808594 C 709.113281 9.167969 707.359375 9.761719 705.679688 10.582031 C 702.667969 12.050781 700.109375 14.101562 697.9375 16.644531 C 697.882812 16.710938 697.824219 16.773438 697.765625 16.839844 C 697.707031 16.789062 697.664062 16.753906 697.625 16.714844 C 696.578125 15.671875 695.433594 14.75 694.191406 13.945312 C 692.683594 12.964844 691.207031 12.066406 689.582031 11.304688 C 687.699219 10.417969 685.65625 9.742188 683.625 9.292969 C 681.875 8.90625 680.109375 8.746094 678.324219 8.984375 C 677.25 9.128906 676.21875 9.421875 675.257812 9.933594 C 672.867188 11.214844 671.570312 13.261719 671.1875 15.910156 C 671.089844 16.589844 671.050781 17.28125 671.042969 17.96875 C 671.03125 18.652344 671.089844 19.332031 671.125 20.011719 C 671.164062 20.769531 671.273438 21.519531 671.40625 22.269531 C 671.996094 24.878906 672.742188 26.882812 673.378906 28.339844 C 674.195312 29.976562 675.117188 31.097656 675.972656 32.03125 C 676.535156 32.648438 677.179688 33.152344 677.957031 33.464844 C 678.589844 33.71875 678.265625 33.675781 678.9375 33.5 C 679.039062 33.476562 679.230469 33.550781 679.375 33.5 C 679.3125 33.464844 679.394531 33.511719 679.375 33.5 C 678.800781 33.160156 678.816406 33.023438 678.148438 32.304688 C 677.484375 31.585938 677.152344 31.675781 675.953125 29.441406 C 674.632812 26.988281 673.949219 24.742188 673.566406 22.960938 C 673.183594 21.179688 672.871094 20.320312 672.78125 19.21875 C 672.714844 18.394531 672.84375 17.398438 672.90625 16.574219 C 672.976562 15.683594 672.976562 14.769531 673.285156 13.933594 C 673.90625 12.25 675.832031 11.015625 677.554688 10.480469 C 678.378906 10.226562 679.230469 10.140625 680.085938 10.15625 C 681.128906 10.179688 682.167969 10.296875 683.199219 10.457031 C 684.742188 10.691406 686.253906 11.050781 687.710938 11.605469 C 691.285156 12.960938 693.960938 15.15625 696.570312 18.03125 C 696.714844 18.191406 696.699219 18.199219 696.582031 18.375 C 696.246094 18.867188 695.910156 19.355469 695.585938 19.851562 C 694.53125 21.46875 693.726562 23.195312 693.222656 25.066406 C 692.917969 26.210938 692.671875 27.371094 692.539062 28.550781 C 692.453125 29.316406 692.351562 30.078125 692.320312 30.84375 C 692.273438 32.015625 692.273438 33.191406 692.269531 34.363281 C 692.265625 34.78125 692.296875 35.203125 692.328125 35.621094 C 692.375 36.277344 692.4375 36.929688 692.496094 37.585938 C 692.523438 37.847656 692.566406 38.109375 692.605469 38.386719 C 692.742188 38.34375 692.84375 38.316406 692.925781 38.289062 C 692.855469 37.648438 692.769531 37.039062 692.722656 36.421875 C 692.664062 35.625 692.609375 34.828125 692.597656 34.027344 C 692.578125 32.496094 692.6875 30.972656 692.90625 29.457031 C 693.074219 28.304688 693.308594 27.167969 693.625 26.046875 C 694.339844 23.515625 695.433594 21.164062 696.988281 19.039062 C 697.035156 18.96875 697.089844 18.902344 697.148438 18.824219 C 697.203125 18.886719 697.238281 18.925781 697.269531 18.96875 C 698.703125 21.023438 699.800781 23.246094 700.554688 25.632812 C 701.214844 27.714844 701.433594 29.863281 701.460938 32.039062 C 701.480469 33.570312 701.378906 35.097656 701.175781 36.613281 C 701.074219 37.367188 700.929688 38.117188 700.804688 38.867188 C 700.792969 38.929688 700.761719 38.996094 700.746094 39.046875 C 700.496094 39.015625 700.269531 38.980469 700.046875 38.964844 C 696.101562 38.691406 694.074219 38.9375 693.847656 38.964844 C 693.777344 38.972656 693.203125 39.027344 692.984375 39.054688 C 692.746094 39.085938 692.507812 39.117188 692.269531 39.144531 C 692.105469 39.164062 691.945312 39.175781 691.757812 39.195312 C 691.738281 38.972656 691.722656 38.769531 691.707031 38.566406 C 691.644531 37.671875 691.417969 36.804688 691.226562 35.929688 C 691.109375 35.386719 690.933594 34.863281 690.683594 34.363281 C 690.273438 33.546875 689.625 33.035156 688.746094 32.816406 C 688.285156 32.703125 687.808594 32.679688 687.335938 32.703125 C 686.382812 32.753906 685.4375 32.882812 684.5 33.089844 C 682.921875 33.4375 681.375 33.886719 679.851562 34.421875 C 678.566406 34.867188 677.308594 35.386719 676.144531 36.101562 C 675.601562 36.433594 675.09375 36.8125 674.667969 37.289062 C 674.304688 37.6875 674.078125 38.152344 674.125 38.707031 C 674.15625 39.132812 674.339844 39.503906 674.589844 39.835938 C 675.121094 40.527344 675.664062 41.207031 676.128906 41.949219 C 676.476562 42.507812 676.796875 43.078125 676.96875 43.722656 C 677.046875 44.011719 677.027344 44.046875 676.785156 44.214844 C 676.136719 44.664062 675.574219 45.210938 675.066406 45.8125 C 674.523438 46.457031 674.105469 47.183594 673.75 47.949219 C 673.476562 48.539062 673.242188 49.144531 673.253906 49.816406 C 673.253906 49.894531 673.222656 49.988281 673.1875 50.0625 C 672.890625 50.675781 672.640625 51.308594 672.429688 51.957031 C 672.019531 53.242188 671.789062 54.554688 671.820312 55.90625 C 671.855469 57.367188 672.113281 58.789062 672.644531 60.15625 C 673.101562 61.332031 673.707031 62.421875 674.507812 63.394531 C 676.082031 65.300781 677.996094 66.785156 680.160156 67.964844 C 681.828125 68.875 682.519531 69.324219 684.261719 70.078125 C 684.753906 70.289062 688.121094 71.378906 688.804688 71.539062 C 689.238281 71.636719 689.675781 71.710938 690.117188 71.792969 C 690.433594 71.851562 690.75 71.902344 691.066406 71.949219 C 691.484375 72.011719 691.902344 72.070312 692.320312 72.125 C 692.539062 72.148438 692.757812 72.15625 692.976562 72.167969 C 694.703125 72.273438 697.53125 72.34375 699.113281 72.210938 C 699.40625 72.191406 699.691406 72.160156 699.980469 72.132812 C 700.308594 72.097656 700.636719 72.066406 700.960938 72.027344 C 701.296875 71.984375 701.628906 71.941406 701.960938 71.882812 C 702.589844 71.765625 703.222656 71.644531 703.851562 71.511719 C 704.316406 71.414062 704.789062 71.316406 705.246094 71.183594 C 705.933594 70.988281 706.613281 70.761719 707.296875 70.546875 C 708.058594 70.296875 708.804688 70.011719 709.53125 69.675781 C 710.148438 69.390625 710.769531 69.117188 711.367188 68.800781 C 711.984375 68.46875 712.585938 68.109375 713.175781 67.730469 C 713.710938 67.390625 714.226562 67.019531 714.738281 66.644531 C 715.074219 66.398438 715.390625 66.125 715.703125 65.851562 C 716.128906 65.472656 716.558594 65.097656 716.949219 64.691406 C 717.332031 64.296875 717.679688 63.867188 718.023438 63.4375 C 718.289062 63.113281 718.546875 62.785156 718.777344 62.4375 C 719.246094 61.726562 719.65625 60.980469 720 60.199219 C 720.273438 59.578125 720.660156 58.542969 720.878906 57.234375 C 721.023438 56.359375 721.011719 55.492188 721.003906 54.617188 C 721 53.886719 720.722656 52.679688 720.636719 52.375 C 720.5 51.90625 720.351562 51.445312 720.179688 50.992188 C 720.019531 50.582031 719.835938 50.179688 719.636719 49.785156 C 719.335938 49.179688 718.976562 48.605469 718.570312 48.054688 C 718.347656 47.753906 718.125 47.449219 717.894531 47.148438 C 717.804688 47.03125 717.703125 46.921875 717.601562 46.8125 C 717.269531 46.460938 716.949219 46.097656 716.601562 45.765625 C 716.273438 45.449219 715.914062 45.167969 715.570312 44.867188 C 714.980469 44.34375 714.34375 43.882812 713.683594 43.457031 C 713.1875 43.136719 712.683594 42.828125 712.167969 42.542969 C 711.636719 42.25 711.097656 41.96875 710.546875 41.710938 C 709.984375 41.449219 709.410156 41.210938 708.832031 40.984375 C 707.84375 40.589844 706.835938 40.253906 705.804688 39.996094 C 705.1875 39.84375 704.570312 39.699219 703.953125 39.550781 C 703.886719 39.535156 703.816406 39.527344 703.6875 39.507812 C 703.804688 39.453125 703.875 39.398438 703.953125 39.390625 C 707.796875 38.898438 711.261719 37.429688 714.429688 35.246094 C 717.949219 32.820312 720.714844 29.691406 722.800781 25.960938 C 723.625 24.480469 724.246094 22.921875 724.597656 21.257812 C 724.714844 20.691406 724.820312 20.121094 724.828125 19.542969 C 724.828125 19.449219 724.855469 19.355469 724.867188 19.265625 L 724.867188 17.933594 C 724.855469 17.84375 724.832031 17.761719 724.828125 17.675781 " fill-opacity="1" fill-rule="nonzero"/></g><g clip-path="url(#clip-15)"><path fill="rgb(0%, 0%, 0%)" d="M 688.695312 10.910156 C 686.738281 10.113281 684.636719 9.375 682.574219 9.066406 C 680.792969 8.796875 679.019531 8.777344 677.261719 9.191406 C 676.203125 9.441406 675.203125 9.847656 674.296875 10.488281 C 672.035156 12.089844 670.941406 14.421875 670.808594 17.332031 C 670.773438 18.082031 670.804688 18.835938 670.859375 19.582031 C 670.914062 20.324219 671.035156 21.054688 671.136719 21.792969 C 671.246094 22.613281 671.425781 23.417969 671.628906 24.21875 C 672.050781 25.894531 672.621094 27.507812 673.394531 29.035156 C 674.003906 30.242188 674.71875 31.371094 675.660156 32.308594 C 676.277344 32.929688 676.96875 33.421875 677.773438 33.691406 C 678.425781 33.910156 679.082031 33.949219 679.734375 33.703125 C 679.832031 33.664062 679.925781 33.609375 680.066406 33.542969 C 680.003906 33.507812 679.980469 33.496094 679.960938 33.484375 C 679.359375 33.164062 678.847656 32.707031 678.378906 32.191406 C 677.449219 31.179688 676.730469 30.003906 676.125 28.746094 C 675.375 27.191406 674.78125 25.566406 674.28125 23.902344 C 673.933594 22.75 673.65625 21.578125 673.460938 20.386719 C 673.316406 19.5 673.21875 18.609375 673.207031 17.707031 C 673.191406 16.734375 673.257812 15.777344 673.488281 14.84375 C 673.949219 12.960938 674.972656 11.613281 676.640625 10.882812 C 677.433594 10.535156 678.273438 10.367188 679.128906 10.3125 C 680.171875 10.246094 681.214844 10.28125 682.261719 10.363281 C 683.816406 10.484375 685.34375 10.8125 686.847656 11.285156 " fill-opacity="1" fill-rule="nonzero"/></g></svg>